<svg width="40" height="40" viewBox="0 0 40 40" fill="none" xmlns="http://www.w3.org/2000/svg">
<mask id="mask0" mask-type="alpha" maskUnits="userSpaceOnUse" x="0" y="0" width="40" height="40">
<rect width="40" height="40" fill="white"/>
</mask>
<g mask="url(#mask0)">
<path d="M13.5636 21.2561C13.5678 21.2483 13.5553 21.193 13.5392 21.1345C13.3309 20.2143 12.2514 14.2542 18.2738 9.42365C18.2738 9.42365 22.4172 6.2602 25.3553 7.72865C24.7616 7.2952 23.8109 6.60934 23.3678 6.27468C22.3522 5.50296 21.6286 5.49055 21.6286 5.49055C20.0047 5.39434 18.774 6.01865 18.774 6.01865C13.6052 8.20089 12.9621 13.8688 12.9621 13.8688C12.3631 17.5428 13.0234 19.8683 13.4836 21.0983C13.4862 21.1045 13.5507 21.2721 13.5636 21.2561Z" fill="white"/>
<path d="M25.3974 23.7287C25.3995 23.7277 25.3995 23.7261 25.4026 23.7236C25.4031 23.7194 25.4021 23.7251 25.3974 23.7287Z" fill="white"/>
<path d="M25.3974 23.7284C25.3974 23.7315 25.3974 23.7336 25.3974 23.7341C25.3782 23.7651 25.3891 23.7429 25.3974 23.7284Z" fill="white"/>
<path d="M23.6379 8.01562C23.5517 8.4589 23.3184 9.35994 21.5034 10.4601C21.1969 10.6468 21.0894 10.6711 20.8774 10.8123C20.7008 10.9292 20.3231 11.2649 20.7605 11.6968C20.9662 11.9001 22.681 13.0122 23.7179 13.7456C23.8358 13.6468 23.9829 13.5175 24.0509 13.4575C24.0894 13.4234 24.0836 13.4296 24.0945 13.4187C24.4904 13.0567 24.9517 12.5089 25.3922 11.7527C25.88 10.8961 26.1631 9.90718 25.733 9.06356C25.733 9.06407 25.3252 8.05131 23.6379 8.01562Z" fill="white"/>
<path d="M23.4888 14.0019C22.519 13.3962 21.9974 13.1215 20.2478 12.2432C20.2478 12.2432 19.7507 12.0239 19.7112 11.7436C19.7112 11.7436 19.707 11.7353 19.706 11.7188C19.7034 11.8744 19.6395 14.2475 19.3257 16.1024C19.3148 16.182 19.2732 16.361 19.3107 16.6155C19.3683 16.9941 19.6078 17.2372 19.7195 17.3546C19.8868 17.532 20.7792 18.2717 22.8956 19.7231C23.8343 20.3675 25.359 21.6415 25.4634 23.0691C25.4655 23.0882 25.4727 23.3334 25.4379 23.4824C25.4197 23.6034 25.3813 23.726 25.3782 23.7306C25.3771 23.741 25.3699 23.7612 25.3699 23.7612C25.3699 23.7632 25.372 23.771 25.3761 23.7669C25.3834 23.7658 25.3865 23.7503 25.3943 23.7343C25.3995 23.726 25.4073 23.7131 25.4197 23.695C25.4826 23.5765 26.6078 21.0896 26.8166 20.546C26.9413 20.2206 27.8649 18.6431 26.1481 16.3496C26.1481 16.3481 25.3912 15.2598 23.4888 14.0019Z" fill="white"/>
<path d="M24.2545 21.7106C24.2016 21.6325 24.1491 21.5461 24.0873 21.4602C24.0873 21.4602 21.361 23.7221 17.5392 21.9925C17.5392 21.9925 14.561 20.748 14.1252 17.3828C14.0971 17.5261 14.0712 17.6735 14.0493 17.8199C13.2281 22.9897 17.1527 25.8273 20.9231 25.7435C23.787 25.6773 25.6114 23.7713 24.2545 21.7106Z" fill="white"/>
<path d="M7.22234 32.3387H9.25767V31.4713H7.22234V30.0096H9.71585V29.1406H6.18338V34.7072H9.84572V33.8387H7.22234V32.3387Z" fill="white"/>
<path fill-rule="evenodd" clip-rule="evenodd" d="M32.5938 32.3392V32.3584C32.5938 32.3584 32.6712 32.4339 32.7823 32.6341L33.9584 34.7098H32.8047L31.6655 32.6341H30.5574V34.7098H29.5195V29.1406H31.4758C32.094 29.1406 32.3756 29.1877 32.6244 29.3005C33.1948 29.5503 33.5569 30.0794 33.5569 30.8232C33.5569 31.4842 33.1943 32.1044 32.5938 32.3392ZM30.5574 31.7511H31.6026C32.1564 31.7511 32.5013 31.4284 32.5013 30.8755C32.5013 30.3432 32.2701 30.0117 31.4582 30.0117H30.5574V31.7511Z" fill="white"/>
<path fill-rule="evenodd" clip-rule="evenodd" d="M3.57663 31.7842V31.763C4.01299 31.5386 4.26702 31.0932 4.26702 30.5755C4.26702 29.6579 3.53611 29.1406 2.51065 29.1406H0.356888V34.7098H2.53299C3.58806 34.7098 4.50286 34.207 4.50286 33.0939C4.50234 32.5275 4.20624 31.9663 3.57663 31.7842ZM1.37871 30.0023H2.49455C2.97715 30.0023 3.2213 30.2951 3.2213 30.6965C3.2213 31.1025 2.96208 31.4149 2.51377 31.4149H1.37871V30.0023ZM1.37871 33.8553H2.61767C3.14806 33.8553 3.44728 33.5123 3.4478 33.036C3.4478 32.5689 3.14078 32.2306 2.61767 32.2306H1.37871V33.8553Z" fill="white"/>
<path d="M12.6265 29.1406H11.5912V34.7092H15.2047V33.8387H12.6265V29.1406Z" fill="white"/>
<path fill-rule="evenodd" clip-rule="evenodd" d="M35.4935 29.1406H37.812C38.8836 29.1406 39.626 29.8689 39.626 30.953C39.626 32.0346 38.8836 32.7872 37.812 32.7872H36.5314V34.7098H35.4935V29.1406ZM36.5314 31.9094H37.6182C38.2239 31.9094 38.574 31.5329 38.574 30.9525C38.574 30.3779 38.2239 30.0096 37.6353 30.0096H36.5314V31.9094Z" fill="white"/>
<path d="M18.9491 33.8792C17.7579 33.8792 17.0265 32.9456 17.0265 31.8884C17.0265 30.8523 17.734 29.9751 18.9413 29.9751C19.8462 29.9751 20.5003 30.5622 20.5003 30.5622L20.9938 29.8049C20.9938 29.8049 20.28 29.0508 18.8914 29.0508C17.2094 29.0508 15.959 30.2885 15.959 31.906C15.959 33.5415 17.1642 34.8061 18.9086 34.8061C20.361 34.8061 21.1501 33.903 21.1501 33.903L20.601 33.1758C20.601 33.1758 19.9356 33.8792 18.9491 33.8792Z" fill="white"/>
<path fill-rule="evenodd" clip-rule="evenodd" d="M22.1309 31.8884C22.1309 30.2932 23.4016 29.0508 25.0826 29.0508C26.7621 29.0508 28.0322 30.2932 28.0322 31.8884C28.0322 33.5291 26.7616 34.8061 25.0826 34.8061C23.4011 34.8061 22.1309 33.5291 22.1309 31.8884ZM23.2026 31.8884C23.2026 33.032 24.0364 33.8792 25.0826 33.8792C26.1257 33.8792 26.9616 33.032 26.9616 31.8884C26.9616 30.7913 26.1257 29.9751 25.0826 29.9751C24.0364 29.9751 23.2026 30.7913 23.2026 31.8884Z" fill="white"/>
</g>
</svg>
