<svg width="82" height="17" viewBox="0 0 82 17" fill="none" xmlns="http://www.w3.org/2000/svg">
<path d="M0.672487 12.6205C0.675812 12.6143 0.665838 12.57 0.652955 12.5232C0.486306 11.7871 -0.377279 7.01896 4.44059 3.15454C4.44059 3.15454 7.75529 0.623786 10.1058 1.79854C9.63083 1.45179 8.87031 0.903097 8.51581 0.635372C7.70334 0.0179931 7.12444 0.00806205 7.12444 0.00806205C5.82532 -0.0689035 4.8408 0.430545 4.8408 0.430545C0.705734 2.17634 0.191241 6.71068 0.191241 6.71068C-0.287928 9.64986 0.24028 11.5103 0.608487 12.4943C0.610565 12.4992 0.662098 12.6333 0.672487 12.6205Z" fill="#B9007E"/>
<path d="M10.1395 14.5982C10.1412 14.5974 10.1412 14.5961 10.1437 14.5941C10.1441 14.5908 10.1432 14.5953 10.1395 14.5982Z" fill="white"/>
<path d="M10.1396 14.5978C10.1396 14.6003 10.1396 14.6019 10.1396 14.6023C10.1242 14.6272 10.1329 14.6094 10.1396 14.5978Z" fill="white"/>
<path d="M8.732 2.02783C8.66301 2.38245 8.47641 3.10328 7.02436 3.98342C6.77916 4.1328 6.69314 4.15225 6.52358 4.26521C6.38228 4.35873 6.08015 4.62728 6.43007 4.9728C6.59464 5.13542 7.96649 6.02507 8.79599 6.61183C8.89033 6.5328 9.00794 6.42935 9.06238 6.38135C9.09314 6.35404 9.08857 6.359 9.09729 6.35031C9.41397 6.06066 9.78301 5.62245 10.1354 5.01749C10.5257 4.33225 10.7522 3.54107 10.408 2.86618C10.408 2.86659 10.0818 2.05638 8.732 2.02783Z" fill="#B9007E"/>
<path d="M8.6126 6.81721C7.8367 6.33265 7.41946 6.11293 6.01977 5.41031C6.01977 5.41031 5.62205 5.23486 5.59047 5.01058C5.59047 5.01058 5.58715 5.00396 5.58631 4.99072C5.58424 5.11527 5.53312 7.01376 5.28211 8.49762C5.27338 8.56134 5.24013 8.70452 5.27005 8.9081C5.31618 9.211 5.50777 9.40548 5.59712 9.49941C5.73094 9.64134 6.44491 10.2331 8.138 11.3942C8.88896 11.9098 10.1087 12.9289 10.1922 14.071C10.1939 14.0863 10.1997 14.2824 10.1719 14.4016C10.1573 14.4984 10.1266 14.5965 10.1241 14.6002C10.1232 14.6085 10.1174 14.6247 10.1174 14.6247C10.1174 14.6263 10.1191 14.6325 10.1224 14.6292C10.1282 14.6284 10.1307 14.616 10.137 14.6031C10.1411 14.5965 10.1474 14.5862 10.1573 14.5717C10.2076 14.4769 11.1078 12.4874 11.2748 12.0525C11.3746 11.7922 12.1135 10.5302 10.74 8.69541C10.74 8.69417 10.1345 7.82355 8.6126 6.81721Z" fill="#B9007E"/>
<path d="M9.2253 12.9847C9.18291 12.9222 9.14094 12.8531 9.09149 12.7844C9.09149 12.7844 6.9105 14.5939 3.85304 13.2102C3.85304 13.2102 1.4705 12.2146 1.12182 9.52246C1.09938 9.63708 1.0786 9.75501 1.06115 9.87212C0.404108 14.008 3.54385 16.278 6.56016 16.211C8.85128 16.158 10.3108 14.6332 9.2253 12.9847Z" fill="#B9007E"/>
<path d="M29.3774 9.29031H32.6339V7.90244H29.3774V5.56368H33.367V4.17334H27.7151V13.0798H33.5748V11.6903H29.3774V9.29031Z" fill="#B9007E"/>
<path fill-rule="evenodd" clip-rule="evenodd" d="M69.9716 9.29113V9.32175C69.9716 9.32175 70.0954 9.44258 70.2733 9.76286L72.1551 13.084H70.309L68.4863 9.76286H66.7134V13.084H65.0527V4.17334H68.1829C69.172 4.17334 69.6225 4.24865 70.0206 4.42906C70.9333 4.82879 71.5126 5.67541 71.5126 6.86548C71.5126 7.92313 70.9324 8.91541 69.9716 9.29113ZM66.7134 8.35017H68.3857C69.2717 8.35017 69.8236 7.83375 69.8236 6.94906C69.8236 6.09748 69.4538 5.567 68.1547 5.567H66.7134V8.35017Z" fill="#B9007E"/>
<path fill-rule="evenodd" clip-rule="evenodd" d="M23.5442 8.40313V8.3692C24.2423 8.01003 24.6488 7.29748 24.6488 6.46906C24.6488 5.00093 23.4793 4.17334 21.8386 4.17334H18.3926V13.084H21.8743C23.5624 13.084 25.0261 12.2795 25.0261 10.4986C25.0253 9.59237 24.5515 8.69444 23.5442 8.40313ZM20.0275 5.5521H21.8128C22.585 5.5521 22.9756 6.02051 22.9756 6.66272C22.9756 7.31237 22.5609 7.81224 21.8436 7.81224H20.0275V5.5521ZM20.0275 11.7168H22.0098C22.8584 11.7168 23.3372 11.1681 23.338 10.4059C23.338 9.65858 22.8468 9.11734 22.0098 9.11734H20.0275V11.7168Z" fill="#B9007E"/>
<path d="M38.024 4.17334H36.3674V13.0831H42.149V11.6903H38.024V4.17334Z" fill="#B9007E"/>
<path fill-rule="evenodd" clip-rule="evenodd" d="M74.6111 4.17334H78.3206C80.0353 4.17334 81.223 5.33858 81.223 7.0732C81.223 8.80368 80.0353 10.0078 78.3206 10.0078H76.2718V13.084H74.6111V4.17334ZM76.2718 8.60341H78.0106C78.9797 8.60341 79.5399 8.00093 79.5399 7.07237C79.5399 6.15293 78.9797 5.56368 78.038 5.56368H76.2718V8.60341Z" fill="#B9007E"/>
<path d="M48.1402 11.7533C46.2343 11.7533 45.064 10.2596 45.064 8.56797C45.064 6.91031 46.1961 5.50673 48.1277 5.50673C49.5756 5.50673 50.622 6.44604 50.622 6.44604L51.4116 5.23445C51.4116 5.23445 50.2696 4.02783 48.0479 4.02783C45.3566 4.02783 43.356 6.00825 43.356 8.59611C43.356 11.2129 45.2843 13.2364 48.0753 13.2364C50.3993 13.2364 51.6618 11.7914 51.6618 11.7914L50.7833 10.6278C50.7833 10.6278 49.7186 11.7533 48.1402 11.7533Z" fill="#B9007E"/>
<path fill-rule="evenodd" clip-rule="evenodd" d="M53.231 8.56797C53.231 6.01569 55.264 4.02783 57.9537 4.02783C60.6408 4.02783 62.673 6.01569 62.673 8.56797C62.673 11.1931 60.64 13.2364 57.9537 13.2364C55.2632 13.2364 53.231 11.1931 53.231 8.56797ZM54.9457 8.56797C54.9457 10.3978 56.2797 11.7533 57.9537 11.7533C59.6226 11.7533 60.96 10.3978 60.96 8.56797C60.96 6.81266 59.6226 5.50673 57.9537 5.50673C56.2797 5.50673 54.9457 6.81266 54.9457 8.56797Z" fill="#B9007E"/>
</svg>
