<svg width="18" height="20" viewBox="0 0 18 20" fill="none" xmlns="http://www.w3.org/2000/svg">
<path fill-rule="evenodd" clip-rule="evenodd" d="M8 17.232L10 18.565V11.5C10 10.482 14.327 5.371 17 2.313V1H1V2.313C3.673 5.371 8 10.482 8 11.5V17.232ZM10.5 20C10.403 20 10.306 19.972 10.223 19.916L7.223 17.916C7.083 17.823 7 17.667 7 17.5V11.5C6.849 10.832 3.384 6.556 0.124 2.829C0.044 2.738 0 2.621 0 2.5V0.5C0 0.224 0.224 0 0.5 0H17.5C17.776 0 18 0.224 18 0.5V2.5C18 2.621 17.956 2.738 17.876 2.829C14.616 6.556 11.151 10.832 10.997 11.537L11 19.5C11 19.685 10.898 19.854 10.736 19.94C10.662 19.98 10.581 20 10.5 20Z" fill="black"/>
</svg>
