<svg width="25" height="25" viewBox="0 0 25 25" fill="none" xmlns="http://www.w3.org/2000/svg">
<path fill-rule="evenodd" clip-rule="evenodd" d="M20.6648 6.20814C21.0103 5.82399 21.0978 5.27265 20.8882 4.80041C20.6786 4.32816 20.2111 4.02317 19.6944 4.02168C19.3234 4.02104 18.9697 4.17856 18.722 4.45476L16.7651 6.53195C16.597 6.71282 16.3482 6.79525 16.1054 6.7505L9.47686 5.54348L8.4934 6.19912L13.2052 9.02819C13.3922 9.14324 13.5176 9.33615 13.547 9.55372C13.5763 9.7713 13.5064 9.99055 13.3566 10.151C12.6909 10.8538 12.0282 11.6076 11.3987 12.3124L11.2042 12.5279C11.032 12.7192 10.7719 12.8057 10.5195 12.7555L7.37059 12.1249L6.90342 12.5921L10.3691 14.3274C10.5122 14.397 10.6279 14.5124 10.6979 14.6553L12.4322 18.1209L12.8984 17.6538L12.2688 14.5059C12.2187 14.2551 12.3044 13.9964 12.4944 13.8252L14.8804 11.6558C15.0437 11.5105 15.2622 11.4436 15.4789 11.4723C15.6946 11.5052 15.8845 11.6323 15.9972 11.8192L18.8242 16.5309L19.4799 15.5475L18.2749 8.91792C18.2314 8.67552 18.3137 8.42762 18.4934 8.25927L20.5666 6.30539C20.6017 6.27431 20.6337 6.24223 20.6648 6.20814ZM21.2443 3.61662C21.7261 4.05485 22.0016 4.67538 22.0035 5.32669C22.0054 5.97799 21.7336 6.60013 21.2543 7.04118L19.2884 8.90183L20.4664 15.3961C20.5135 15.6517 20.4583 15.9424 20.314 16.158L19.6583 17.1956C19.4719 17.4733 19.1591 17.7499 18.8242 17.7499H18.8002C18.4563 17.7499 18.1415 17.4502 17.9651 17.1545L15.3085 12.6211L13.2824 14.4627L13.8809 17.4572C13.9473 17.7853 13.8449 18.1248 13.6082 18.3615L13.142 18.8286C12.9139 19.0559 12.5907 19.16 12.2728 19.1086C11.9549 19.0572 11.6809 18.8566 11.536 18.569L9.84079 15.1835L6.45532 13.4893C6.16795 13.3443 5.96738 13.0704 5.91581 12.7527C5.86424 12.435 5.96791 12.1117 6.19467 11.8833L6.66184 11.4161C6.89949 11.1796 7.23929 11.077 7.5681 11.1424L10.5626 11.7429L10.6508 11.6447L10.9796 11.2758C11.4398 10.7585 11.914 10.2261 12.3952 9.70985L7.97813 7.05922C7.68408 6.8819 7.50099 6.56666 7.49266 6.22338C7.48433 5.88011 7.65192 5.55636 7.93703 5.36499L8.91948 4.70935C9.13622 4.56536 9.40037 4.51109 9.65632 4.55797L16.1365 5.73692L17.9781 3.78303C18.3882 3.32623 18.9635 3.05181 19.5766 3.02057C20.1897 2.98933 20.7899 3.20386 21.2443 3.61662ZM9.55207 15.4462C9.64529 15.5413 9.69684 15.6696 9.69534 15.8027C9.69383 15.9359 9.6394 16.063 9.54405 16.1559L7.82175 17.8402C7.62131 18.0167 7.31773 18.0055 7.13086 17.8146C6.94399 17.6238 6.93921 17.32 7.11999 17.1234L8.8433 15.4391C9.04169 15.2468 9.35809 15.2504 9.55207 15.4472V15.4462ZM10.8273 19.4101C11.0259 19.221 11.3396 19.2266 11.5313 19.4227C11.7231 19.6188 11.7216 19.9326 11.528 20.1269L9.80771 21.8101C9.60681 21.9826 9.30648 21.9695 9.12136 21.7801C8.93624 21.5908 8.92994 21.2902 9.10696 21.0933L10.8283 19.4101H10.8273ZM4.87235 13.4552C5.07097 13.2661 5.3847 13.2717 5.57643 13.4679C5.76815 13.664 5.76667 13.9777 5.5731 14.172L3.8518 15.8562C3.65136 16.0328 3.34778 16.0216 3.16091 15.8307C2.97404 15.6399 2.96927 15.3361 3.15004 15.1395L4.87235 13.4552Z" fill="#6AA3F9"/>
</svg>
