<svg width="24" height="24" viewBox="0 0 24 24" fill="none" xmlns="http://www.w3.org/2000/svg">
<path fill-rule="evenodd" clip-rule="evenodd" d="M9.0002 11V7.707L11.1602 5.547C11.6062 6.967 12.9352 8 14.5002 8H15.0002V11C15.0002 12.654 13.6542 14 12.0002 14C10.3462 14 9.0002 12.654 9.0002 11ZM12.0002 18.5C10.9222 18.5 9.9422 17.905 9.4132 17H9.5022C10.3272 17 11.0002 16.329 11.0022 15.505L11.0042 14.859C11.3252 14.942 11.6542 15 12.0002 15C14.2062 15 16.0002 13.206 16.0002 11V7.5C16.0002 7.224 15.7762 7 15.5002 7H14.5002C13.1222 7 12.0002 5.879 12.0002 4.5C12.0002 4.298 11.8782 4.115 11.6912 4.038C11.5042 3.961 11.2902 4.003 11.1462 4.146L8.1462 7.146C8.0532 7.24 8.0002 7.367 8.0002 7.5V11C8.0002 12.477 8.8132 13.755 10.0072 14.447C10.0072 14.449 10.0062 14.451 10.0062 14.453L10.0022 15.502C10.0022 15.776 9.7772 16 9.5022 16H8.5312C7.9872 16 7.4662 16.124 7.0002 16.351V8C7.0002 5.243 9.2432 3 12.0002 3C14.7572 3 17.0002 5.243 17.0002 8V12.5V13V13.5C17.0002 13.775 17.2252 14 17.5002 14C17.7752 14 18.0002 13.775 18.0002 13.5V13V12.5V8C18.0002 4.691 15.3092 2 12.0002 2C8.6912 2 6.0002 4.691 6.0002 8V17.092C5.7012 17.408 5.4512 17.777 5.2812 18.2L4.0362 21.314C3.9332 21.57 4.0582 21.861 4.3142 21.964C4.3752 21.988 4.4382 22 4.5002 22C4.6982 22 4.8862 21.881 4.9642 21.686L6.2102 18.571C6.5642 17.687 7.3752 17.098 8.3122 17.017C8.9222 18.493 10.3792 19.5 12.0002 19.5C12.2762 19.5 12.5002 19.276 12.5002 19C12.5002 18.724 12.2762 18.5 12.0002 18.5ZM16.5002 21C15.1222 21 14.0002 19.879 14.0002 18.5C14.0002 17.121 15.1222 16 16.5002 16C17.8782 16 19.0002 17.121 19.0002 18.5C19.0002 19.879 17.8782 21 16.5002 21ZM16.5002 15C14.5702 15 13.0002 16.57 13.0002 18.5C13.0002 20.43 14.5702 22 16.5002 22C18.4302 22 20.0002 20.43 20.0002 18.5C20.0002 16.57 18.4302 15 16.5002 15ZM17.0002 18H17.5002C17.7762 18 18.0002 18.224 18.0002 18.5C18.0002 18.776 17.7762 19 17.5002 19H17.0002V19.5C17.0002 19.776 16.7762 20 16.5002 20C16.2242 20 16.0002 19.776 16.0002 19.5V19H15.5002C15.2242 19 15.0002 18.776 15.0002 18.5C15.0002 18.224 15.2242 18 15.5002 18H16.0002V17.5C16.0002 17.224 16.2242 17 16.5002 17C16.7762 17 17.0002 17.224 17.0002 17.5V18Z" fill="#B9007E"/>
</svg>
