<svg width="24" height="24" viewBox="0 0 24 24" fill="none" xmlns="http://www.w3.org/2000/svg">
<path fill-rule="evenodd" clip-rule="evenodd" d="M15.4485 16.8249L20.9007 17.6128L21.3316 14.6775L15.4485 16.8249ZM5.95388 19.0194C5.9904 19.1195 6.08327 19.1321 6.14796 19.1102L7.85301 18.4872C7.3344 17.6159 6.32849 17.139 5.3257 17.2872L5.95388 19.0194ZM10.2081 7.65485L4.75492 6.85346L4.32605 9.78772L10.2081 7.65485ZM19.6996 5.48233C19.6756 5.41554 19.612 5.38424 19.5598 5.38424L17.8683 5.99676C18.3848 6.81902 19.3438 7.27398 20.3059 7.15398L19.6996 5.48233ZM21.8168 11.3248C20.956 11.8413 20.4801 12.8336 20.62 13.826L22.3365 13.1999C22.4147 13.1707 22.4544 13.0841 22.4252 13.0048L21.8168 11.3248ZM3.21892 11.3446C3.2064 11.3707 3.19701 11.4114 3.2137 11.4583L3.82101 13.1331C4.70588 12.6291 5.20466 11.6315 5.07318 10.6277L3.30344 11.2674C3.25544 11.2851 3.2304 11.3195 3.21892 11.3446ZM4.96988 16.3053C6.51631 15.9828 8.09927 16.73 8.83283 18.1293L19.6391 14.1849C19.325 12.6448 20.07 11.0743 21.462 10.3439L20.6659 8.14841C20.4436 8.1912 20.2214 8.21833 20.0001 8.21833C18.7167 8.21833 17.4989 7.51398 16.8718 6.35781L6.05718 10.2708C6.36188 11.8215 5.59283 13.3982 4.17579 14.1129L4.96988 16.3053ZM20.6815 5.12755L23.4071 12.65C23.6294 13.2667 23.31 13.9522 22.6965 14.1787L22.445 14.2705L21.9222 17.8413C21.8513 18.3202 21.438 18.6667 20.9674 18.6667C20.9226 18.6667 20.8767 18.6635 20.8307 18.6573L13.3793 17.5804L6.50379 20.09C6.37127 20.138 6.23457 20.162 6.09579 20.162C5.59492 20.162 5.14414 19.8458 4.97301 19.3742L2.23283 11.8142C2.12431 11.5168 2.13892 11.1933 2.27248 10.9032C2.40814 10.6152 2.64709 10.395 2.94761 10.2865L3.21266 10.1915L3.7344 6.62389C3.81266 6.09902 4.29892 5.74215 4.82692 5.80894L12.196 6.89207C12.2083 6.89382 12.2189 6.89854 12.2296 6.90326C12.2379 6.90695 12.2463 6.91065 12.2554 6.91294L19.1528 4.41381C19.757 4.19259 20.4645 4.5265 20.6815 5.12755ZM10.2968 11.9901C10.1852 13.355 11.2067 14.5591 12.5737 14.6718C13.948 14.7647 15.1438 13.7442 15.2554 12.395C15.3681 11.029 14.3476 9.82591 12.9807 9.71321C12.9107 9.708 12.8419 9.70487 12.773 9.70487C11.4906 9.70487 10.4033 10.7087 10.2968 11.9901ZM9.25648 11.9045C9.41614 9.98869 11.1243 8.51321 13.0662 8.67391C15.0071 8.83356 16.4554 10.5417 16.2958 12.4805C16.1455 14.2993 14.6022 15.7236 12.7814 15.7236C12.6843 15.7236 12.5862 15.7195 12.4881 15.7111C10.5473 15.5515 9.09788 13.8433 9.25648 11.9045Z" fill="#38BE62"/>
</svg>
