<svg width="24" height="18" viewBox="0 0 24 18" fill="none" xmlns="http://www.w3.org/2000/svg">
<path fill-rule="evenodd" clip-rule="evenodd" d="M8.09564 13.4698C8.34978 13.2821 8.65058 13.1589 8.97403 13.1165C9.49289 14.3015 10.686 15.0996 12.001 15.0996C13.3336 15.0996 14.5098 14.3156 15.028 13.1164C15.3507 13.1587 15.651 13.2815 15.905 13.4686C15.9349 13.6873 16.1063 13.8611 16.3238 13.8946C16.4102 14.016 16.4834 14.149 16.5409 14.2921L17.5419 16.7861C17.6199 16.9811 17.8079 17.1001 18.0059 17.1001C18.0679 17.1001 18.1309 17.0881 18.1929 17.0641C18.4479 16.9611 18.5719 16.6701 18.4699 16.4141L17.4689 13.9201C17.3328 13.5802 17.1386 13.2773 16.9004 13.0208V5.79939C16.9004 3.09839 14.7024 0.900391 12.0014 0.900391C9.2984 0.900391 7.1004 3.09839 7.1004 5.79939V13.0232C6.86249 13.28 6.66874 13.5831 6.533 13.9231L5.537 16.4141C5.435 16.6711 5.559 16.9621 5.815 17.0641C5.876 17.0891 5.939 17.1001 6.001 17.1001C6.199 17.1001 6.387 16.9811 6.465 16.7861L7.461 14.2941C7.51856 14.1502 7.59195 14.0164 7.67876 13.8943C7.89567 13.8603 8.06552 13.6874 8.09564 13.4698ZM15.9004 12.3238V5.79939C15.9004 3.64939 14.1514 1.90039 12.0014 1.90039C9.8504 1.90039 8.1004 3.64939 8.1004 5.79939V12.3246C8.44889 12.1789 8.8299 12.1001 9.226 12.1001H9.29616C9.31093 12.0994 9.32563 12.0994 9.34022 12.1001H10.003C10.168 12.1001 10.303 11.9661 10.303 11.8021L10.3058 11.0313C9.34442 10.4539 8.7002 9.40115 8.7002 8.20039V5.40039C8.7002 5.26739 8.7532 5.14039 8.8462 5.04639L11.2472 2.64739C11.3902 2.50339 11.6062 2.46039 11.7922 2.53839C11.9782 2.61539 12.1002 2.79839 12.1002 3.00039C12.1002 4.04839 12.9532 4.90039 14.0012 4.90039H14.8012C15.0772 4.90039 15.3012 5.12439 15.3012 5.40039V8.20039C15.3012 9.39925 14.6586 10.4506 13.7001 11.0286L13.7039 11.8011C13.7039 11.9661 13.8389 12.1001 14.0039 12.1001H14.7769C15.1721 12.1001 15.5524 12.1786 15.9004 12.3238ZM12.702 11.4255C12.4761 11.4745 12.2416 11.5004 12.0012 11.5004C11.7622 11.5004 11.529 11.4749 11.3044 11.4265L11.303 11.8051C11.3011 12.4848 10.7711 13.0455 10.1022 13.0963C10.5239 13.7092 11.2321 14.0996 12.001 14.0996C12.782 14.0996 13.4847 13.7146 13.9035 13.0962C13.2351 13.0449 12.7058 12.4853 12.7039 11.8041L12.702 11.4255ZM9.7002 8.20039V5.60739L11.2862 4.02239C11.7002 5.11839 12.7612 5.90039 14.0012 5.90039H14.3012V8.20039C14.3012 9.46839 13.2692 10.5004 12.0012 10.5004C10.7322 10.5004 9.7002 9.46839 9.7002 8.20039Z" fill="#39BBB1"/>
<path d="M2.4622 15.2731C2.50069 15.1774 2.5485 15.0876 2.60436 15.0047C2.78443 14.9592 2.92568 14.8158 2.9682 14.6345C3.1317 14.5204 3.31922 14.441 3.51998 14.4039C3.78943 14.9764 4.25101 15.4439 4.8299 15.7181C4.8989 15.7511 4.9719 15.7661 5.0439 15.7661C5.2309 15.7661 5.4099 15.6611 5.4959 15.4801C5.6139 15.2301 5.5079 14.9321 5.2579 14.8141C5.02512 14.7037 4.82217 14.5445 4.6612 14.3504C5.16431 14.2332 5.54148 13.7821 5.5432 13.2441L5.54374 13.0614C5.69247 13.0865 5.84524 13.0996 6.001 13.0996C6.277 13.0996 6.501 12.8756 6.501 12.5996C6.501 12.3236 6.277 12.0996 6.001 12.0996C5.041 12.0996 4.261 11.3196 4.261 10.3606V8.32759L5.394 7.19459C5.513 7.45659 5.679 7.69859 5.889 7.91059C6.082 8.10459 6.398 8.10759 6.596 7.91259C6.791 7.71759 6.793 7.40159 6.598 7.20459C6.329 6.93359 6.181 6.57759 6.181 6.20059C6.181 5.99859 6.059 5.81559 5.872 5.73859C5.687 5.66059 5.471 5.70359 5.327 5.84759L3.407 7.76659C3.313 7.86059 3.261 7.98759 3.261 8.12059V10.3606C3.261 11.3363 3.77411 12.1946 4.54487 12.6799L4.5432 13.2411C4.5432 13.3181 4.4792 13.3801 4.4022 13.3801H3.7812C3.50284 13.3801 3.23333 13.4268 2.9814 13.5144V8.44099C2.9814 6.77499 4.3354 5.41999 6.0014 5.41999C6.1604 5.41999 6.3164 5.43299 6.4704 5.45699C6.7254 5.49199 6.9984 5.30999 7.0394 5.03699C7.0804 4.76399 6.8924 4.50899 6.6194 4.46699C6.4184 4.43699 6.2104 4.41999 6.0014 4.41999C3.7844 4.41999 1.9814 6.22399 1.9814 8.44099V14.1801C1.79505 14.3881 1.64264 14.631 1.5342 14.9021L0.737198 16.8941C0.635198 17.1511 0.759198 17.4421 1.0152 17.5441C1.0762 17.5691 1.1392 17.5801 1.2012 17.5801C1.3992 17.5801 1.5872 17.4611 1.6652 17.2661L2.4622 15.2731Z" fill="#39BBB1"/>
<path d="M21.0215 13.5135C20.7698 13.4262 20.5006 13.3796 20.2227 13.3796H19.6037C19.5267 13.3796 19.4637 13.3176 19.4637 13.2406L19.4611 12.6774C20.2303 12.1917 20.742 11.3344 20.742 10.3601V8.12009C20.742 7.84409 20.519 7.62009 20.242 7.62009H19.602C18.818 7.62009 18.181 6.98309 18.181 6.20009C18.181 5.92409 17.957 5.70009 17.681 5.70009C17.404 5.70009 17.181 5.92409 17.181 6.20009C17.181 7.53509 18.267 8.62009 19.602 8.62009H19.742V10.3601C19.742 11.3191 18.961 12.0991 18.001 12.0991C17.725 12.0991 17.501 12.3231 17.501 12.5991C17.501 12.8751 17.725 13.0991 18.001 13.0991C18.1584 13.0991 18.3127 13.0858 18.4628 13.0602L18.4637 13.2446C18.4654 13.7806 18.8404 14.2309 19.3418 14.3492C19.1789 14.5457 18.9733 14.7064 18.7382 14.8165C18.4882 14.9345 18.3802 15.2315 18.4972 15.4815C18.5832 15.6635 18.7632 15.7695 18.9502 15.7695C19.0212 15.7695 19.0942 15.7545 19.1622 15.7225C19.7448 15.4488 20.2117 14.9789 20.4827 14.4032C20.6833 14.4401 20.8709 14.5191 21.0344 14.6328C21.0767 14.8152 21.2189 14.9594 21.4002 15.0046C21.4554 15.0869 21.5027 15.1758 21.5407 15.2706L22.3417 17.2656C22.4197 17.4606 22.6077 17.5796 22.8057 17.5796C22.8677 17.5796 22.9307 17.5676 22.9927 17.5436C23.2477 17.4406 23.3717 17.1496 23.2697 16.8936L22.4687 14.8976C22.3603 14.6274 22.2078 14.3851 22.0215 14.1777V8.44049C22.0215 6.22349 20.2175 4.41949 18.0005 4.41949C17.7955 4.41949 17.5945 4.43549 17.3975 4.46449C17.1255 4.50549 16.9365 4.76049 16.9775 5.03349C17.0185 5.30849 17.2825 5.49149 17.5455 5.45449C17.6945 5.43149 17.8465 5.41949 18.0005 5.41949C19.6665 5.41949 21.0215 6.77449 21.0215 8.44049V13.5135Z" fill="#39BBB1"/>
</svg>
