<svg width="18" height="21" viewBox="0 0 18 21" fill="none" xmlns="http://www.w3.org/2000/svg">
<path fill-rule="evenodd" clip-rule="evenodd" d="M17.481 17.1544C16.4297 16.0553 15.8277 14.6133 15.81 13.0699V13C15.81 12.9932 15.8099 12.9865 15.8096 12.9798V8.5C15.8096 5.36758 13.7364 2.65263 10.799 1.79188C10.6953 0.783638 9.84616 0 8.80963 0C7.77376 0 6.92407 0.783886 6.82028 1.79191C3.88341 2.65279 1.80963 5.368 1.80963 8.5V13C1.80963 14.5703 1.2059 16.0392 0.139288 17.1544C-0.164902 17.4725 0.0605275 18 0.500629 18H6.31003C6.31003 19.3761 7.43389 20.5 8.81003 20.5C10.1862 20.5 11.31 19.3761 11.31 18H17.1196C17.5597 18 17.7852 17.4725 17.481 17.1544ZM10.31 18H7.31003C7.31003 18.8239 7.98617 19.5 8.81003 19.5C9.63389 19.5 10.31 18.8239 10.31 18ZM14.81 13.5V13.0754C14.8098 13.0503 14.8096 13.0252 14.8096 13V8.5C14.8096 5.70227 12.88 3.29328 10.196 2.66692C9.96971 2.61411 9.80963 2.41237 9.80963 2.18V2C9.80963 1.44574 9.36409 1 8.80963 1C8.25577 1 7.80963 1.44614 7.80963 2V2.18C7.80963 2.41235 7.64957 2.61409 7.4233 2.66691C4.73982 3.29337 2.80963 5.70271 2.80963 8.5V12.9798C2.8099 12.9865 2.81003 12.9932 2.81003 13V13.5C2.81003 13.563 2.79836 13.6234 2.77707 13.6789C2.66082 14.8851 2.23646 16.0225 1.55464 17H16.0655C15.3828 16.0216 14.958 14.8832 14.842 13.6762C14.8213 13.6214 14.81 13.562 14.81 13.5Z" fill="white"/>
</svg>
