<svg width="24" height="24" viewBox="0 0 24 24" fill="none" xmlns="http://www.w3.org/2000/svg">
<path fill-rule="evenodd" clip-rule="evenodd" d="M5.00007 8.21925L11.1691 11.5102C11.1941 11.5242 11.2231 11.5292 11.2491 11.5412V19.3362L4.99707 16.0012L5.00007 8.21925ZM11.7501 4.08625L14.3281 5.46125L8.13907 8.76125L5.56107 7.38625L11.7501 4.08625ZM11.8511 10.6312C11.7901 10.6652 11.7101 10.6652 11.6421 10.6292L9.20207 9.32725L15.3791 6.03425C15.3831 6.03225 15.3851 6.02825 15.3891 6.02625L17.9361 7.38525L11.8511 10.6312ZM14.3091 18.2372L12.2491 19.3352V11.5412C12.2741 11.5302 12.3011 11.5242 12.3251 11.5112L18.5011 8.21625V11.9942C18.5011 12.2702 18.7251 12.4942 19.0011 12.4942C19.2771 12.4942 19.5011 12.2702 19.5011 11.9942V7.68625C19.5011 7.31425 19.2961 6.97425 18.9691 6.80225L12.2261 3.20525C11.9251 3.04225 11.5701 3.04425 11.2771 3.20325L4.53107 6.80125C4.20207 6.97425 3.99707 7.31425 3.99707 7.68625V16.0012C3.99707 16.3762 4.20307 16.7162 4.52907 16.8832L11.2771 20.4842C11.4251 20.5632 11.5871 20.6022 11.7491 20.6022C11.9111 20.6022 12.0731 20.5632 12.2211 20.4842L14.7791 19.1182C15.0231 18.9892 15.1151 18.6862 14.9851 18.4422C14.8541 18.1982 14.5521 18.1062 14.3091 18.2372Z" fill="#F4B10B"/>
<path fill-rule="evenodd" clip-rule="evenodd" d="M19.0001 19.8711C17.2791 19.8711 15.8791 18.4711 15.8791 16.7501C15.8791 15.0291 17.2791 13.6291 19.0001 13.6291C20.7211 13.6291 22.1211 15.0291 22.1211 16.7501C22.1211 18.4711 20.7211 19.8711 19.0001 19.8711ZM19.0001 12.6291C16.7281 12.6291 14.8791 14.4771 14.8791 16.7501C14.8791 19.0221 16.7281 20.8711 19.0001 20.8711C21.2721 20.8711 23.1211 19.0221 23.1211 16.7501C23.1211 14.4771 21.2721 12.6291 19.0001 12.6291Z" fill="#F4B10B"/>
<path fill-rule="evenodd" clip-rule="evenodd" d="M19.2921 17.8799L19.3761 17.1269C19.5251 17.2189 19.6161 17.3289 19.6161 17.4509C19.6161 17.5639 19.5701 17.7869 19.2921 17.8799ZM18.3961 15.8279C18.3961 15.7009 18.5791 15.5259 18.9021 15.5059L18.8201 16.2429C18.4021 16.0869 18.3961 15.8979 18.3961 15.8279ZM19.4531 16.4369L19.5271 15.7679C19.6441 15.8679 19.8091 15.8919 19.9321 15.7949C20.0731 15.6849 20.1001 15.4809 19.9891 15.3379C19.9801 15.3269 19.8401 15.1699 19.6091 15.0359L19.6491 14.6819C19.6691 14.5039 19.5411 14.3419 19.3621 14.3229C19.1741 14.2999 19.0221 14.4319 19.0031 14.6089L18.9761 14.8519C18.9691 14.8519 18.9641 14.8489 18.9571 14.8489C18.1991 14.8489 17.7461 15.3469 17.7461 15.8279C17.7461 16.1869 17.9331 16.6479 18.7461 16.9009L18.6371 17.8849C18.3981 17.8309 18.2771 17.7429 18.2731 17.7409C18.1391 17.6219 17.9331 17.6339 17.8151 17.7689C17.6961 17.9039 17.7091 18.1089 17.8441 18.2279C17.8751 18.2559 18.1121 18.4459 18.5641 18.5319L18.5321 18.8169C18.5131 18.9949 18.6411 19.1559 18.8191 19.1749C18.8321 19.1769 18.8441 19.1779 18.8551 19.1779C19.0201 19.1779 19.1601 19.0549 19.1791 18.8889L19.2181 18.5409C19.9231 18.4479 20.2671 17.9429 20.2671 17.4509C20.2671 17.2759 20.2001 16.7339 19.4531 16.4369Z" fill="#F4B10B"/>
</svg>
