<svg width="22" height="17" viewBox="0 0 22 17" fill="none" xmlns="http://www.w3.org/2000/svg">
<path fill-rule="evenodd" clip-rule="evenodd" d="M13.4485 12.8249L18.9007 13.6128L19.3316 10.6775L13.4485 12.8249ZM3.95388 15.0194C3.9904 15.1195 4.08327 15.1321 4.14796 15.1102L5.85301 14.4872C5.3344 13.6159 4.32849 13.139 3.3257 13.2872L3.95388 15.0194ZM8.20814 3.65485L2.75492 2.85346L2.32605 5.78772L8.20814 3.65485ZM17.6996 1.48233C17.6756 1.41554 17.612 1.38424 17.5598 1.38424L15.8683 1.99676C16.3848 2.81902 17.3438 3.27398 18.3059 3.15398L17.6996 1.48233ZM19.8168 7.32476C18.956 7.84128 18.4801 8.83363 18.62 9.82598L20.3365 9.19989C20.4147 9.17068 20.4544 9.08407 20.4252 9.00476L19.8168 7.32476ZM1.21892 7.34459C1.2064 7.37068 1.19701 7.41137 1.2137 7.45833L1.82101 9.13311C2.70588 8.62911 3.20466 7.63154 3.07318 6.62772L1.30344 7.26737C1.25544 7.28511 1.2304 7.31954 1.21892 7.34459ZM2.96988 12.3053C4.51631 11.9828 6.09927 12.73 6.83283 14.1293L17.6391 10.1849C17.325 8.64476 18.07 7.07433 19.462 6.34389L18.6659 4.14841C18.4436 4.1912 18.2214 4.21833 18.0001 4.21833C16.7167 4.21833 15.4989 3.51398 14.8718 2.35781L4.05718 6.27085C4.36188 7.82146 3.59283 9.39815 2.17579 10.1129L2.96988 12.3053ZM18.6815 1.12755L21.4071 8.64998C21.6294 9.26667 21.31 9.95224 20.6965 10.1787L20.445 10.2705L19.9222 13.8413C19.8513 14.3202 19.438 14.6667 18.9674 14.6667C18.9226 14.6667 18.8767 14.6635 18.8307 14.6573L11.3793 13.5804L4.50379 16.09C4.37127 16.138 4.23457 16.162 4.09579 16.162C3.59492 16.162 3.14414 15.8458 2.97301 15.3742L0.232832 7.81415C0.12431 7.51676 0.138919 7.19328 0.272484 6.9032C0.408136 6.6152 0.647093 6.39502 0.947615 6.2865L1.21266 6.19154L1.7344 2.62389C1.81266 2.09902 2.29892 1.74215 2.82692 1.80894L10.196 2.89207C10.2083 2.89382 10.2189 2.89854 10.2296 2.90326C10.2379 2.90695 10.2463 2.91065 10.2554 2.91294L17.1528 0.413806C17.757 0.192589 18.4645 0.526502 18.6815 1.12755ZM8.29683 7.99008C8.18518 9.35495 9.20675 10.5591 10.5737 10.6718C11.948 10.7647 13.1438 9.74417 13.2554 8.39495C13.3681 7.02904 12.3476 5.82591 10.9807 5.71321C10.9107 5.708 10.8419 5.70487 10.773 5.70487C9.49057 5.70487 8.40327 6.70869 8.29683 7.99008ZM7.25648 7.90452C7.41614 5.98869 9.12431 4.51321 11.0662 4.67391C13.0071 4.83356 14.4554 6.54174 14.2958 8.48052C14.1455 10.2993 12.6022 11.7236 10.7814 11.7236C10.6843 11.7236 10.5862 11.7195 10.4881 11.7111C8.54727 11.5515 7.09788 9.8433 7.25648 7.90452Z" fill="#38BE62"/>
</svg>
