<svg width="23" height="19" viewBox="0 0 23 19" fill="none" xmlns="http://www.w3.org/2000/svg">
<path fill-rule="evenodd" clip-rule="evenodd" d="M17.4563 1.15625V17.7812H20.4488V1.15625H17.4563ZM21.4463 17.7812V0.636719C21.4463 0.349937 21.2229 0.117188 20.9476 0.117188H16.9576C16.6822 0.117188 16.4588 0.349937 16.4588 0.636719V17.7812H14.4638V5.83203C14.4638 5.54525 14.2404 5.3125 13.9651 5.3125H9.97506C9.69975 5.3125 9.47631 5.54525 9.47631 5.83203V17.7812H7.48131V11.0273C7.48131 10.7406 7.25787 10.5078 6.98256 10.5078H2.99256C2.71725 10.5078 2.49381 10.7406 2.49381 11.0273V17.7812H1.49631C1.221 17.7812 0.997559 18.014 0.997559 18.3008C0.997559 18.5876 1.221 18.8203 1.49631 18.8203H2.99256H6.98256H9.97506H13.9651H16.9576H20.9476H22.4438C22.7191 18.8203 22.9426 18.5876 22.9426 18.3008C22.9426 18.014 22.7191 17.7812 22.4438 17.7812H21.4463ZM3.49131 17.7812H6.48381V11.5469H3.49131V17.7812ZM10.4738 17.7812H13.4663V6.35156H10.4738V17.7812ZM10.6983 0.949978C10.6235 0.835681 10.5098 0.756713 10.3791 0.730736L7.35672 0.126002C7.09039 0.0740486 6.82605 0.256924 6.77318 0.53851C6.72131 0.820096 6.89787 1.09233 7.16919 1.14636L9.00858 1.51419L3.40064 5.47613C3.17221 5.63823 3.11336 5.96034 3.26697 6.19828C3.36373 6.34583 3.52133 6.42688 3.68093 6.42688C3.77769 6.42688 3.87445 6.39674 3.96023 6.33752L9.56818 2.37557L9.21506 4.29056C9.16319 4.57215 9.33975 4.84438 9.61107 4.89946C9.64199 4.90569 9.67391 4.90881 9.70484 4.90881C9.93925 4.90881 10.1487 4.73632 10.1946 4.48695L10.7752 1.33963C10.8001 1.20351 10.7722 1.06324 10.6983 0.949978Z" fill="#6879F8"/>
<mask id="mask0" mask-type="alpha" maskUnits="userSpaceOnUse" x="0" y="0" width="23" height="19">
<path fill-rule="evenodd" clip-rule="evenodd" d="M17.4563 1.15625V17.7812H20.4488V1.15625H17.4563ZM21.4463 17.7812V0.636719C21.4463 0.349937 21.2229 0.117188 20.9476 0.117188H16.9576C16.6822 0.117188 16.4588 0.349937 16.4588 0.636719V17.7812H14.4638V5.83203C14.4638 5.54525 14.2404 5.3125 13.9651 5.3125H9.97506C9.69975 5.3125 9.47631 5.54525 9.47631 5.83203V17.7812H7.48131V11.0273C7.48131 10.7406 7.25787 10.5078 6.98256 10.5078H2.99256C2.71725 10.5078 2.49381 10.7406 2.49381 11.0273V17.7812H1.49631C1.221 17.7812 0.997559 18.014 0.997559 18.3008C0.997559 18.5876 1.221 18.8203 1.49631 18.8203H2.99256H6.98256H9.97506H13.9651H16.9576H20.9476H22.4438C22.7191 18.8203 22.9426 18.5876 22.9426 18.3008C22.9426 18.014 22.7191 17.7812 22.4438 17.7812H21.4463ZM3.49131 17.7812H6.48381V11.5469H3.49131V17.7812ZM10.4738 17.7812H13.4663V6.35156H10.4738V17.7812ZM10.6983 0.949978C10.6235 0.835681 10.5098 0.756713 10.3791 0.730736L7.35672 0.126002C7.09039 0.0740486 6.82605 0.256924 6.77318 0.53851C6.72131 0.820096 6.89787 1.09233 7.16919 1.14636L9.00858 1.51419L3.40064 5.47613C3.17221 5.63823 3.11336 5.96034 3.26697 6.19828C3.36373 6.34583 3.52133 6.42688 3.68093 6.42688C3.77769 6.42688 3.87445 6.39674 3.96023 6.33752L9.56818 2.37557L9.21506 4.29056C9.16319 4.57215 9.33975 4.84438 9.61107 4.89946C9.64199 4.90569 9.67391 4.90881 9.70484 4.90881C9.93925 4.90881 10.1487 4.73632 10.1946 4.48695L10.7752 1.33963C10.8001 1.20351 10.7722 1.06324 10.6983 0.949978Z" fill="white"/>
</mask>
<g mask="url(#mask0)">
</g>
</svg>
