<svg width="14" height="14" viewBox="0 0 14 14" fill="none" xmlns="http://www.w3.org/2000/svg">
<path fill-rule="evenodd" clip-rule="evenodd" d="M12.1913 0.310329C12.605 -0.103443 13.2759 -0.103443 13.6897 0.310329C14.1034 0.724101 14.1034 1.39496 13.6897 1.80873L8.4984 7L13.6897 12.1913C14.1034 12.605 14.1034 13.2759 13.6897 13.6897C13.2759 14.1034 12.605 14.1034 12.1913 13.6897L7 8.4984L1.80873 13.6897C1.39496 14.1034 0.724101 14.1034 0.310329 13.6897C-0.103443 13.2759 -0.103443 12.605 0.310329 12.1913L5.5016 7L0.310329 1.80873C-0.103443 1.39496 -0.103443 0.724101 0.310329 0.310329C0.724101 -0.103443 1.39496 -0.103443 1.80873 0.310329L7 5.5016L12.1913 0.310329Z" fill="black"/>
</svg>
