<svg width="32" height="32" viewBox="0 0 32 32" fill="none" xmlns="http://www.w3.org/2000/svg">
<path fill-rule="evenodd" clip-rule="evenodd" d="M20.2882 10.9285C19.4722 13.1111 17.0855 14.0725 14.9362 13.3631C12.8189 12.5378 11.7109 10.1565 12.5015 8.01113C13.2842 5.88979 15.7429 4.78446 17.8535 5.57646C19.9735 6.37379 21.0829 8.80713 20.2882 10.9285ZM21.1549 6.63113C18.5495 2.26846 11.6949 3.60446 10.9215 8.62579C10.5082 11.3031 12.0975 13.7391 14.5682 14.7018C16.7855 15.4351 19.2602 14.7658 20.7269 12.9231C22.1482 11.1391 22.3255 8.59246 21.1549 6.63113ZM16.6802 11.2331L16.6803 11.2322C16.7296 10.7872 16.7789 10.3421 16.8295 9.89713C16.9949 9.97579 17.1415 10.0771 17.2495 10.2225C17.6855 10.8065 17.2589 11.1251 16.6802 11.2331ZM15.4215 8.04246C15.4415 7.62379 15.7842 7.48513 16.1709 7.50379C16.1269 7.90779 16.0815 8.31179 16.0362 8.71446C15.6909 8.58513 15.4042 8.38913 15.4215 8.04246ZM16.9789 8.98646C16.9642 8.98246 16.9482 8.97713 16.9322 8.97179C16.9624 8.71132 16.9915 8.45084 17.0205 8.19037L17.0642 7.79979C17.1189 7.83846 17.1669 7.87846 17.2029 7.92246C17.5882 8.37713 18.2402 7.71979 17.8575 7.26646C17.6775 7.05313 17.4402 6.89713 17.1762 6.79313C17.1989 6.59846 17.2202 6.40513 17.2415 6.21046C17.3082 5.61979 16.3815 5.62513 16.3162 6.21046L16.2682 6.63446C15.1615 6.64913 14.0922 7.37179 14.6095 8.60779C14.7642 8.97846 15.0709 9.23979 15.4162 9.42913C15.5682 9.51579 15.7482 9.57313 15.9335 9.62379C15.8944 9.98286 15.8541 10.3419 15.8138 10.701L15.7535 11.2398C15.5455 11.2038 15.3695 11.1425 15.2642 11.0545C14.8055 10.6825 14.1469 11.3331 14.6082 11.7091C14.8922 11.9398 15.2575 12.1025 15.6482 12.1891C15.6269 12.3691 15.6069 12.5478 15.5869 12.7278C15.5202 13.3185 16.4469 13.3158 16.5122 12.7278C16.5292 12.5833 16.5451 12.4378 16.5609 12.2931L16.5655 12.2505C17.4802 12.1691 18.2962 11.6518 18.3162 10.6025C18.3295 9.78779 17.6882 9.24779 16.9789 8.98646ZM20.271 21.0078C21.5897 20.5825 22.9083 20.1571 24.2257 19.7331C24.9763 19.4905 25.855 19.4505 26.6083 19.6985C26.6982 19.657 26.8024 19.6157 26.9109 19.5727C27.2001 19.4581 27.5201 19.3313 27.683 19.1558C27.723 19.1131 27.7523 19.0945 27.7697 19.0878C27.7483 19.0798 27.715 19.0518 27.6697 18.9838C27.491 18.7091 27.083 18.5078 26.791 18.3918C25.9269 18.0511 25.1702 18.3561 24.3866 18.672C24.3238 18.6973 24.2609 18.7227 24.1977 18.7478C22.7497 19.3251 21.3003 19.9025 19.851 20.4798C19.771 20.7318 19.6443 20.9785 19.4803 21.2091C19.7417 21.1665 20.0003 21.0945 20.271 21.0078ZM20.9661 18.5281C22.1514 18.036 23.3395 17.5427 24.5443 17.1171C23.7266 16.388 22.5789 16.9823 21.6494 17.4635C21.5437 17.5182 21.4409 17.5715 21.3417 17.6211C21.0086 17.7883 20.6755 17.9552 20.3424 18.1221C20.0088 18.2892 19.6752 18.4563 19.3417 18.6238C19.495 18.7558 19.6177 18.8958 19.7097 19.0465C20.1285 18.8758 20.5471 18.702 20.9661 18.5281ZM26.1017 16.8651C27.2337 16.9118 28.3683 17.4265 28.9937 18.3838C29.7137 19.4865 28.7737 20.1465 27.8777 20.6105C27.987 20.7665 28.0817 20.9425 28.155 21.1385C28.6423 22.4216 27.4003 22.8559 26.4554 23.1864C26.392 23.2086 26.3298 23.2303 26.2697 23.2518C25.4813 23.5337 24.6922 23.8151 23.9028 24.0966C23.2771 24.3198 22.6512 24.543 22.0257 24.7665C21.7776 24.8551 21.5278 24.9498 21.2763 25.0451C20.4422 25.3611 19.5894 25.6843 18.7217 25.8185C17.7481 25.9718 16.7165 25.9506 15.7067 25.9298C15.3377 25.9222 14.9716 25.9147 14.6123 25.9158C14.2684 25.9171 13.9117 25.9082 13.5493 25.8991C12.4589 25.8717 11.316 25.843 10.3083 26.0891C8.97923 26.4131 7.92435 27.2197 6.86522 28.0295C6.69079 28.1629 6.51624 28.2964 6.34033 28.4278C5.62433 28.9651 4.93233 27.7598 5.64033 27.2291C5.78908 27.1179 5.93684 27.0059 6.0843 26.8941C7.23219 26.024 8.36163 25.1679 9.79367 24.7851C10.9522 24.4751 12.2144 24.4967 13.438 24.5176C13.772 24.5233 14.103 24.5289 14.4283 24.5278C14.8198 24.5265 15.2145 24.5334 15.6101 24.5403C16.4178 24.5544 17.2296 24.5686 18.027 24.5131C18.9273 24.4496 19.8226 24.1109 20.6854 23.7845C20.9087 23.7 21.1298 23.6163 21.3483 23.5385C21.7859 23.3821 22.2235 23.2256 22.661 23.0691C23.5368 22.7558 24.4126 22.4425 25.2883 22.1305C25.4327 22.0791 25.5866 22.0128 25.7447 21.9446C26.0712 21.8038 26.4156 21.6553 26.731 21.6158C26.747 21.6131 26.7803 21.6051 26.8177 21.5945C26.7613 21.5728 26.7117 21.4981 26.6548 21.4123C26.5959 21.3235 26.5292 21.2229 26.439 21.1571C26.1963 20.9798 25.895 20.8731 25.5937 20.8585C25.2268 20.8385 24.8342 20.9777 24.4701 21.1067C24.3725 21.1413 24.2768 21.1752 24.1843 21.2051C23.8616 21.3092 23.5391 21.4129 23.2167 21.5166C22.8944 21.6202 22.5722 21.7238 22.2497 21.8278C22.0286 21.8991 21.8046 21.9774 21.5782 22.0566C20.5813 22.4052 19.5384 22.77 18.4963 22.6211C17.7417 22.5135 16.9904 22.2793 16.25 22.0486C15.9452 21.9536 15.6423 21.8592 15.3417 21.7745C14.331 21.4891 13.3217 21.2051 12.3123 20.9211C11.4523 20.6785 11.8203 19.3385 12.6817 19.5825L16.5803 20.6798C16.7741 20.7343 16.9678 20.7908 17.1617 20.8473C17.3282 20.8958 17.4948 20.9444 17.6617 20.9918C17.9403 20.8398 18.267 20.6065 18.415 20.3505C18.7998 19.6794 18.2497 19.5084 17.7849 19.3639C17.7344 19.3482 17.6849 19.3328 17.6377 19.3171C16.8975 19.0725 16.148 18.8571 15.4012 18.6424C15.3502 18.6278 15.2993 18.6131 15.2483 18.5985C13.903 18.2145 12.555 17.8345 11.2003 17.4851C10.1123 17.2051 9.02567 17.2345 8.01233 17.7705C7.10619 18.2508 6.7009 18.941 6.24275 19.7213C6.14002 19.8963 6.03463 20.0758 5.92033 20.2585C5.20002 21.4061 4.0514 21.9475 2.88619 22.4968C2.72063 22.5748 2.55472 22.653 2.38967 22.7331C1.587 23.1211 0.884335 21.9238 1.68967 21.5345C1.88978 21.4371 2.09156 21.3422 2.29353 21.2472C2.68906 21.0612 3.08529 20.8748 3.471 20.6691C4.26925 20.245 4.62687 19.6294 5.0232 18.9473C5.13395 18.7566 5.24773 18.5608 5.375 18.3625C6.539 16.5478 8.74433 15.6478 10.851 15.9838C11.6994 16.1204 12.5443 16.3723 13.3786 16.6211C13.6928 16.7148 14.0055 16.808 14.3163 16.8945C14.6727 16.9933 15.0366 17.087 15.4034 17.1814C16.1949 17.3852 16.9993 17.5923 17.7683 17.8611C18.999 17.2451 20.2297 16.6291 21.459 16.0118C21.4945 15.994 21.5299 15.9762 21.5652 15.9584C22.1321 15.6732 22.6891 15.3929 23.343 15.3678C24.4523 15.3211 25.5363 15.9065 26.1017 16.8651Z" fill="#FF335A"/>
</svg>
