<svg width="24" height="24" viewBox="0 0 24 24" fill="none" xmlns="http://www.w3.org/2000/svg">
<path fill-rule="evenodd" clip-rule="evenodd" d="M19.2 12.96C18.6701 12.96 18.24 12.5289 18.24 12C18.24 11.471 18.6701 11.04 19.2 11.04C19.7299 11.04 20.16 11.471 20.16 12C20.16 12.5289 19.7299 12.96 19.2 12.96ZM13.6301 5.75997C13.6301 5.23101 14.0602 4.79997 14.5901 4.79997C15.12 4.79997 15.5501 5.23101 15.5501 5.75997C15.5501 6.28893 15.12 6.71997 14.5901 6.71997C14.0602 6.71997 13.6301 6.28893 13.6301 5.75997ZM8.11969 19.222C7.58977 19.222 7.15969 18.791 7.15969 18.262C7.15969 17.7331 7.58977 17.302 8.11969 17.302C8.64961 17.302 9.07969 17.7331 9.07969 18.262C9.07969 18.791 8.64961 19.222 8.11969 19.222ZM2.88001 10.1366C2.88001 9.60669 3.31009 9.17661 3.84001 9.17661C4.36993 9.17661 4.80001 9.60669 4.80001 10.1366C4.80001 10.6656 4.36993 11.0966 3.84001 11.0966C3.31009 11.0966 2.88001 10.6656 2.88001 10.1366ZM19.2 10.08C18.8103 10.08 18.4483 10.198 18.145 10.3987L15.8304 7.21341C16.2432 6.86013 16.5101 6.34365 16.5101 5.75997C16.5101 4.70109 15.649 3.83997 14.5901 3.83997C13.5322 3.83997 12.6701 4.70109 12.6701 5.75997C12.6701 6.27741 12.8784 6.74493 13.2125 7.09053L8.36641 16.367C8.28481 16.3564 8.20417 16.342 8.11969 16.342C7.97281 16.342 7.83073 16.3622 7.69345 16.3939L5.09857 11.5747C5.49985 11.2224 5.76001 10.7116 5.76001 10.1366C5.76001 9.07773 4.89889 8.21661 3.84001 8.21661C2.78113 8.21661 1.92001 9.07773 1.92001 10.1366C1.92001 11.1955 2.78113 12.0566 3.84001 12.0566C3.97921 12.0566 4.11265 12.0403 4.24321 12.0115L6.84289 16.8393C6.45121 17.1907 6.19969 17.6956 6.19969 18.262C6.19969 19.3209 7.06081 20.182 8.11969 20.182C9.17857 20.182 10.0397 19.3209 10.0397 18.262C10.0397 17.6323 9.73057 17.0774 9.26017 16.727L14.0352 7.58877C14.2128 7.64253 14.3962 7.67997 14.5901 7.67997C14.7159 7.67997 14.8378 7.66557 14.9568 7.64253L17.4951 11.136C17.3626 11.3971 17.28 11.688 17.28 12C17.28 13.0588 18.1411 13.92 19.2 13.92C20.2589 13.92 21.12 13.0588 21.12 12C21.12 10.9411 20.2589 10.08 19.2 10.08Z" fill="white"/>
<mask id="mask0" mask-type="alpha" maskUnits="userSpaceOnUse" x="1" y="3" width="21" height="18">
<path fill-rule="evenodd" clip-rule="evenodd" d="M19.2 12.96C18.6701 12.96 18.24 12.5289 18.24 12C18.24 11.471 18.6701 11.04 19.2 11.04C19.7299 11.04 20.16 11.471 20.16 12C20.16 12.5289 19.7299 12.96 19.2 12.96ZM13.6301 5.75997C13.6301 5.23101 14.0602 4.79997 14.5901 4.79997C15.12 4.79997 15.5501 5.23101 15.5501 5.75997C15.5501 6.28893 15.12 6.71997 14.5901 6.71997C14.0602 6.71997 13.6301 6.28893 13.6301 5.75997ZM8.11969 19.222C7.58977 19.222 7.15969 18.791 7.15969 18.262C7.15969 17.7331 7.58977 17.302 8.11969 17.302C8.64961 17.302 9.07969 17.7331 9.07969 18.262C9.07969 18.791 8.64961 19.222 8.11969 19.222ZM2.88001 10.1366C2.88001 9.60669 3.31009 9.17661 3.84001 9.17661C4.36993 9.17661 4.80001 9.60669 4.80001 10.1366C4.80001 10.6656 4.36993 11.0966 3.84001 11.0966C3.31009 11.0966 2.88001 10.6656 2.88001 10.1366ZM19.2 10.08C18.8103 10.08 18.4483 10.198 18.145 10.3987L15.8304 7.21341C16.2432 6.86013 16.5101 6.34365 16.5101 5.75997C16.5101 4.70109 15.649 3.83997 14.5901 3.83997C13.5322 3.83997 12.6701 4.70109 12.6701 5.75997C12.6701 6.27741 12.8784 6.74493 13.2125 7.09053L8.36641 16.367C8.28481 16.3564 8.20417 16.342 8.11969 16.342C7.97281 16.342 7.83073 16.3622 7.69345 16.3939L5.09857 11.5747C5.49985 11.2224 5.76001 10.7116 5.76001 10.1366C5.76001 9.07773 4.89889 8.21661 3.84001 8.21661C2.78113 8.21661 1.92001 9.07773 1.92001 10.1366C1.92001 11.1955 2.78113 12.0566 3.84001 12.0566C3.97921 12.0566 4.11265 12.0403 4.24321 12.0115L6.84289 16.8393C6.45121 17.1907 6.19969 17.6956 6.19969 18.262C6.19969 19.3209 7.06081 20.182 8.11969 20.182C9.17857 20.182 10.0397 19.3209 10.0397 18.262C10.0397 17.6323 9.73057 17.0774 9.26017 16.727L14.0352 7.58877C14.2128 7.64253 14.3962 7.67997 14.5901 7.67997C14.7159 7.67997 14.8378 7.66557 14.9568 7.64253L17.4951 11.136C17.3626 11.3971 17.28 11.688 17.28 12C17.28 13.0588 18.1411 13.92 19.2 13.92C20.2589 13.92 21.12 13.0588 21.12 12C21.12 10.9411 20.2589 10.08 19.2 10.08Z" fill="white"/>
</mask>
<g mask="url(#mask0)">
</g>
</svg>
