<svg xmlns="http://www.w3.org/2000/svg" width="24" height="24" viewBox="0 0 24 24">
    <path fill="#000" fill-rule="evenodd" d="M5 8.22L4.997 16l6.252 3.335v-7.795c-.026-.012-.055-.017-.08-.03L5 8.218zm6.75-4.134l-6.189 3.3 2.578 1.375 6.189-3.3-2.578-1.375zm.101 6.545l6.085-3.246-2.547-1.359-.01.008-6.177 3.293 2.44 1.302a.221.221 0 0 0 .209.002zm2.458 7.606a.498.498 0 1 1 .47.881l-2.558 1.366a1 1 0 0 1-.944 0l-6.748-3.6A.987.987 0 0 1 3.997 16V7.686c0-.372.205-.712.534-.885l6.746-3.598a.993.993 0 0 1 .949.002l6.743 3.597a.998.998 0 0 1 .532.884v4.308a.5.5 0 0 1-1 0V8.216l-6.176 3.295c-.024.013-.051.02-.076.03v7.794l2.06-1.098zM19 19.871c1.721 0 3.121-1.4 3.121-3.12 0-1.722-1.4-3.122-3.121-3.122a3.124 3.124 0 0 0-3.121 3.121c0 1.721 1.4 3.121 3.121 3.121zm0-7.242a4.125 4.125 0 0 1 4.121 4.121A4.126 4.126 0 0 1 19 20.871a4.126 4.126 0 0 1-4.121-4.12A4.125 4.125 0 0 1 19 12.628zm.292 5.25a.441.441 0 0 0 .324-.428c0-.122-.091-.232-.24-.324l-.084.753zm-.896-2.051c0 .07.006.259.424.415l.082-.737c-.323.02-.506.195-.506.322zm1.057.609c.747.297.814.839.814 1.014 0 .492-.344.997-1.049 1.09l-.039.348a.326.326 0 0 1-.647-.072l.032-.285c-.452-.086-.689-.276-.72-.304a.325.325 0 1 1 .429-.487c.004.002.125.09.364.144l.109-.984c-.813-.253-1-.714-1-1.073 0-.481.453-.98 1.211-.98.007 0 .012.004.019.004l.027-.243a.317.317 0 0 1 .359-.286.324.324 0 0 1 .287.359l-.04.354c.231.134.371.29.38.302a.326.326 0 0 1-.057.457c-.123.097-.288.073-.405-.027l-.074.669z"/>
</svg>
