<svg width="23" height="28" viewBox="0 0 23 28" fill="none" xmlns="http://www.w3.org/2000/svg">
<path fill-rule="evenodd" clip-rule="evenodd" d="M3.00006 8.39453V20.4989C2.59672 20.922 2.26883 21.4261 2.04139 21.9945L0.381392 26.1465C0.244059 26.4879 0.410726 26.8759 0.752059 27.0132C0.833392 27.0452 0.917392 27.0612 1.00006 27.0612C1.26406 27.0612 1.51473 26.9025 1.61873 26.6425L3.28006 22.4892C3.75017 21.3152 4.82116 20.5239 6.06108 20.409C6.87107 22.3863 8.83223 23.7279 11.0001 23.7279C11.3681 23.7279 11.6667 23.4292 11.6667 23.0612C11.6667 22.6932 11.3681 22.3945 11.0001 22.3945C9.55982 22.3945 8.24138 21.6055 7.5365 20.3945H7.66939C8.76939 20.3945 9.66673 19.4999 9.66939 18.4012L9.6726 17.5607C10.0971 17.6698 10.5419 17.7279 11.0001 17.7279C13.9414 17.7279 16.3334 15.3359 16.3334 12.3945V7.72787C16.3334 7.35987 16.0347 7.0612 15.6667 7.0612H14.3334C12.4961 7.0612 11.0001 5.56653 11.0001 3.72786C11.0001 3.45853 10.8374 3.21453 10.5881 3.11187C10.3401 3.0092 10.0534 3.0652 9.86139 3.25586L5.86139 7.25587C5.73739 7.3812 5.66673 7.55053 5.66673 7.72787V12.3945C5.66673 14.3683 6.74386 16.0947 8.34132 17.017L8.33606 18.3972C8.33606 18.7625 8.03606 19.0612 7.66939 19.0612H6.37473C5.64933 19.0612 4.95501 19.2257 4.33339 19.5266V8.39453C4.33339 4.71853 7.32406 1.72786 11.0001 1.72786C14.6761 1.72786 17.6667 4.71853 17.6667 8.39453V14.3929L17.6667 14.3945L17.6667 15.0612L17.6667 15.7279C17.6667 16.0945 17.9667 16.3945 18.3334 16.3945C18.7001 16.3945 19.0001 16.0945 19.0001 15.7279V15.0612V14.3945V8.39453C19.0001 3.98253 15.4121 0.394531 11.0001 0.394531C6.58806 0.394531 3.00006 3.98253 3.00006 8.39453ZM7.00006 8.00387V12.3945C7.00006 14.5999 8.79473 16.3945 11.0001 16.3945C13.2054 16.3945 15.0001 14.5999 15.0001 12.3945V8.39453H14.3334C12.2467 8.39453 10.4747 7.0172 9.88006 5.12387L7.00006 8.00387ZM14.4901 20.9487C13.8367 22.762 14.7807 24.7687 16.5941 25.4207C18.3754 26.062 20.4301 25.078 21.0647 23.3167C21.7181 21.5033 20.7741 19.498 18.9607 18.8447C18.5781 18.7073 18.1807 18.6367 17.7781 18.6367C16.3087 18.6367 14.9874 19.566 14.4901 20.9487ZM16.1421 26.6753C13.6381 25.774 12.3341 23.0007 13.2354 20.498C13.9234 18.5873 15.7487 17.3033 17.7781 17.3033C18.3341 17.3033 18.8847 17.3993 19.4127 17.59C21.9167 18.4927 23.2221 21.2647 22.3194 23.7687C21.6314 25.678 19.8061 26.962 17.7781 26.962C17.2207 26.962 16.6701 26.866 16.1421 26.6753ZM18.5934 22.5981H18.6347C18.8201 22.5981 18.9894 22.6928 19.0854 22.8528C19.1787 23.0061 19.1854 23.1941 19.1027 23.3515C19.0841 23.3861 19.0641 23.4208 19.0427 23.4528C18.9081 23.6608 18.7187 23.8248 18.4774 23.9381C18.2414 24.0501 17.9707 24.1061 17.6707 24.1061C17.1694 24.1061 16.7667 23.9381 16.4747 23.6088C16.1881 23.2821 16.0414 22.8235 16.0414 22.2408V22.0661C16.0414 21.7035 16.1067 21.3795 16.2347 21.1035C16.3654 20.8221 16.5574 20.6008 16.8054 20.4448C17.0521 20.2901 17.3387 20.2128 17.6614 20.2128C18.1201 20.2128 18.4961 20.3368 18.7801 20.5835C18.9134 20.6981 19.0201 20.8341 19.1001 20.9888C19.1841 21.1528 19.1761 21.3421 19.0814 21.4995C18.9854 21.6568 18.8201 21.7488 18.6374 21.7488H18.6134C18.3907 21.7488 18.1961 21.6048 18.1174 21.3821C18.0974 21.3261 18.0707 21.2821 18.0361 21.2515C17.9601 21.1808 17.8334 21.1461 17.6614 21.1461C17.4947 21.1461 17.3827 21.2021 17.3081 21.3208C17.2241 21.4568 17.1787 21.6888 17.1734 22.0101V22.2581C17.1734 22.6955 17.2414 22.9008 17.2974 22.9968C17.3414 23.0728 17.4281 23.1741 17.6707 23.1741C17.8321 23.1741 17.9521 23.1395 18.0294 23.0688C18.0654 23.0381 18.0921 22.9955 18.1134 22.9435C18.1921 22.7328 18.3801 22.5981 18.5934 22.5981Z" fill="black"/>
</svg>
